<svg class="lds-spinner" width="50px"  height="50px"  xmlns="http://www.w3.org/2000/svg" xmlns:xlink="http://www.w3.org/1999/xlink" viewBox="0 0 100 100" preserveAspectRatio="xMidYMid" style="background: none;"><g transform="rotate(0 50 50)" class="">
  <rect x="47" y="22.5" rx="9.4" ry="4.5" width="6" height="15" fill="#f7f7f7" class="">
    <animate attributeName="opacity" values="1;0" keyTimes="0;1" dur="1.3s" begin="-1.1916666666666667s" repeatCount="indefinite" class=""></animate>
  </rect>
</g><g transform="rotate(30 50 50)" class="">
  <rect x="47" y="22.5" rx="9.4" ry="4.5" width="6" height="15" fill="#f7f7f7" class="">
    <animate attributeName="opacity" values="1;0" keyTimes="0;1" dur="1.3s" begin="-1.0833333333333333s" repeatCount="indefinite" class=""></animate>
  </rect>
</g><g transform="rotate(60 50 50)" class="">
  <rect x="47" y="22.5" rx="9.4" ry="4.5" width="6" height="15" fill="#f7f7f7" class="">
    <animate attributeName="opacity" values="1;0" keyTimes="0;1" dur="1.3s" begin="-0.9750000000000001s" repeatCount="indefinite" class=""></animate>
  </rect>
</g><g transform="rotate(90 50 50)" class="">
  <rect x="47" y="22.5" rx="9.4" ry="4.5" width="6" height="15" fill="#f7f7f7" class="">
    <animate attributeName="opacity" values="1;0" keyTimes="0;1" dur="1.3s" begin="-0.8666666666666667s" repeatCount="indefinite" class=""></animate>
  </rect>
</g><g transform="rotate(120 50 50)" class="">
  <rect x="47" y="22.5" rx="9.4" ry="4.5" width="6" height="15" fill="#f7f7f7" class="">
    <animate attributeName="opacity" values="1;0" keyTimes="0;1" dur="1.3s" begin="-0.7583333333333333s" repeatCount="indefinite" class=""></animate>
  </rect>
</g><g transform="rotate(150 50 50)" class="">
  <rect x="47" y="22.5" rx="9.4" ry="4.5" width="6" height="15" fill="#f7f7f7" class="">
    <animate attributeName="opacity" values="1;0" keyTimes="0;1" dur="1.3s" begin="-0.65s" repeatCount="indefinite" class=""></animate>
  </rect>
</g><g transform="rotate(180 50 50)" class="">
  <rect x="47" y="22.5" rx="9.4" ry="4.5" width="6" height="15" fill="#f7f7f7" class="">
    <animate attributeName="opacity" values="1;0" keyTimes="0;1" dur="1.3s" begin="-0.5416666666666666s" repeatCount="indefinite" class=""></animate>
  </rect>
</g><g transform="rotate(210 50 50)" class="">
  <rect x="47" y="22.5" rx="9.4" ry="4.5" width="6" height="15" fill="#f7f7f7" class="">
    <animate attributeName="opacity" values="1;0" keyTimes="0;1" dur="1.3s" begin="-0.43333333333333335s" repeatCount="indefinite" class=""></animate>
  </rect>
</g><g transform="rotate(240 50 50)" class="">
  <rect x="47" y="22.5" rx="9.4" ry="4.5" width="6" height="15" fill="#f7f7f7" class="">
    <animate attributeName="opacity" values="1;0" keyTimes="0;1" dur="1.3s" begin="-0.325s" repeatCount="indefinite" class=""></animate>
  </rect>
</g><g transform="rotate(270 50 50)" class="">
  <rect x="47" y="22.5" rx="9.4" ry="4.5" width="6" height="15" fill="#f7f7f7" class="">
    <animate attributeName="opacity" values="1;0" keyTimes="0;1" dur="1.3s" begin="-0.21666666666666667s" repeatCount="indefinite" class=""></animate>
  </rect>
</g><g transform="rotate(300 50 50)" class="">
  <rect x="47" y="22.5" rx="9.4" ry="4.5" width="6" height="15" fill="#f7f7f7" class="">
    <animate attributeName="opacity" values="1;0" keyTimes="0;1" dur="1.3s" begin="-0.10833333333333334s" repeatCount="indefinite" class=""></animate>
  </rect>
</g><g transform="rotate(330 50 50)" class="">
  <rect x="47" y="22.5" rx="9.4" ry="4.5" width="6" height="15" fill="#f7f7f7" class="">
    <animate attributeName="opacity" values="1;0" keyTimes="0;1" dur="1.3s" begin="0s" repeatCount="indefinite" class=""></animate>
  </rect>
</g></svg>